<svg width="288" height="288" viewBox="0 0 288 288" fill="none" xmlns="http://www.w3.org/2000/svg">
<g clip-path="url(#clip0_522_10440)">
<mask id="mask0_522_10440" style="mask-type:luminance" maskUnits="userSpaceOnUse" x="0" y="0" width="288" height="288">
<path d="M287.996 0H0V287.998H287.996V0Z" fill="white"/>
</mask>
<g mask="url(#mask0_522_10440)">
<path fill-rule="evenodd" clip-rule="evenodd" d="M285.783 177.435C285.508 176.192 284.957 175.366 283.631 174.868C283.66 176.5 284.12 177.591 285.783 178.394V177.435Z" fill="#0794C5"/>
<path fill-rule="evenodd" clip-rule="evenodd" d="M227.362 174.958C227.615 176.573 226.854 177.538 225.566 178.393C225.283 176.381 225.439 176.094 227.362 174.958Z" fill="#0794C5"/>
<path fill-rule="evenodd" clip-rule="evenodd" d="M212.086 178.353C210.052 177.201 210.052 177.201 209.929 174.871C211.41 175.523 211.922 176.613 212.086 178.353Z" fill="#0794C5"/>
<path fill-rule="evenodd" clip-rule="evenodd" d="M153.515 174.718C153.738 176.587 153.016 177.57 151.53 178.49C151.25 176.578 152.096 175.665 153.515 174.718Z" fill="#0794C5"/>
<path fill-rule="evenodd" clip-rule="evenodd" d="M138.209 178.222C136.236 177.336 136.07 177.052 136.192 174.905C137.611 175.57 138.135 176.668 138.209 178.222Z" fill="#0794C5"/>
<path fill-rule="evenodd" clip-rule="evenodd" d="M77.503 178.355C77.566 176.64 78.203 175.648 79.409 174.876C79.739 176.863 79.596 177.14 77.503 178.355Z" fill="#0794C5"/>
<path fill-rule="evenodd" clip-rule="evenodd" d="M62.245 174.827C63.761 175.601 64.249 176.678 64.374 178.065C62.54 177.566 62.366 177.311 62.245 174.827Z" fill="#0794C5"/>
<path fill-rule="evenodd" clip-rule="evenodd" d="M3.629 178.515C3.781 176.655 4.259 175.517 5.818 174.878C6.027 176.528 5.441 177.592 3.629 178.515Z" fill="#0794C5"/>
<path fill-rule="evenodd" clip-rule="evenodd" d="M3.638 263.122C3.853 261.783 4.303 260.65 5.7 260.081C5.805 262.361 5.41 262.943 3.638 263.122Z" fill="#0794C5"/>
<path fill-rule="evenodd" clip-rule="evenodd" d="M285.783 244.145C284.201 244.854 283.638 245.92 283.653 247.837C284.967 247.047 285.659 246.217 285.783 244.97V244.145Z" fill="#0794C5"/>
<path fill-rule="evenodd" clip-rule="evenodd" d="M227.296 247.617C225.787 247.03 225.322 245.91 225.204 244.435C227.043 245.04 227.225 245.32 227.296 247.617Z" fill="#0794C5"/>
<path fill-rule="evenodd" clip-rule="evenodd" d="M212.089 244.191C211.925 245.903 211.414 246.976 210.102 247.637C209.855 245.632 209.99 245.38 212.089 244.191Z" fill="#0794C5"/>
<path fill-rule="evenodd" clip-rule="evenodd" d="M151.342 243.902C153.041 244.998 153.697 246.01 153.57 247.705C151.95 246.995 151.445 245.89 151.342 243.902Z" fill="#0794C5"/>
<path fill-rule="evenodd" clip-rule="evenodd" d="M137.947 244.385C138.093 245.906 137.613 247.023 135.994 247.685C135.846 245.954 136.595 244.989 137.947 244.385Z" fill="#0794C5"/>
<path fill-rule="evenodd" clip-rule="evenodd" d="M79.595 247.63C78.11 247.018 77.625 245.905 77.516 244.411C79.382 245.08 79.559 245.357 79.595 247.63Z" fill="#0794C5"/>
<path fill-rule="evenodd" clip-rule="evenodd" d="M64.406 243.92C64.249 245.903 63.771 247.023 62.149 247.684C62.031 245.97 62.703 244.962 64.406 243.92Z" fill="#0794C5"/>
<path fill-rule="evenodd" clip-rule="evenodd" d="M3.914 244.082C5.346 245.008 6.004 245.986 5.897 247.463C4.048 246.665 3.877 246.388 3.914 244.082Z" fill="#0794C5"/>
<path fill-rule="evenodd" clip-rule="evenodd" d="M27.449 29.53C25.747 28.479 25.035 27.492 25.327 25.813C26.861 26.504 27.372 27.612 27.449 29.53Z" fill="#0794C5"/>
<path fill-rule="evenodd" clip-rule="evenodd" d="M40.607 29.515C40.635 27.575 41.27 26.535 42.713 25.718C42.986 27.489 42.287 28.491 40.607 29.515Z" fill="#0794C5"/>
<path fill-rule="evenodd" clip-rule="evenodd" d="M99.23 25.863C100.711 26.472 101.19 27.596 101.28 29.11C99.368 28.337 99.205 28.072 99.23 25.863Z" fill="#0794C5"/>
<path fill-rule="evenodd" clip-rule="evenodd" d="M114.699 29.116C114.519 27.602 115.025 26.48 116.564 25.808C116.896 27.524 116.037 28.444 114.699 29.116Z" fill="#0794C5"/>
<path fill-rule="evenodd" clip-rule="evenodd" d="M175.137 29.509C173.408 28.492 172.779 27.463 172.945 25.783C174.549 26.504 175.059 27.612 175.137 29.509Z" fill="#0794C5"/>
<path fill-rule="evenodd" clip-rule="evenodd" d="M188.293 29.515C188.322 27.575 188.957 26.535 190.4 25.718C190.674 27.489 189.974 28.491 188.293 29.515Z" fill="#0794C5"/>
<path fill-rule="evenodd" clip-rule="evenodd" d="M246.874 25.764C248.372 26.567 248.881 27.63 248.964 29.036C247.133 28.452 246.952 28.182 246.874 25.764Z" fill="#0794C5"/>
<path fill-rule="evenodd" clip-rule="evenodd" d="M264.256 25.865C264.535 27.482 263.817 28.476 262.528 29.281C262.15 27.403 262.285 27.138 264.256 25.865Z" fill="#0794C5"/>
<path fill-rule="evenodd" clip-rule="evenodd" d="M3.74 31.105C5.414 32.078 5.984 33.094 5.869 34.706C4.207 34.07 3.75 32.945 3.74 31.105Z" fill="#0794C5"/>
<path fill-rule="evenodd" clip-rule="evenodd" d="M64.397 31.6539C64.191 32.9949 63.732 34.1199 62.349 34.7109C62.225 32.4519 62.635 31.8449 64.397 31.6539Z" fill="#0794C5"/>
<path fill-rule="evenodd" clip-rule="evenodd" d="M79.685 34.772C78.11 34.113 77.72 32.954 77.439 31.629C79.197 31.877 79.447 32.212 79.685 34.772Z" fill="#0794C5"/>
<path fill-rule="evenodd" clip-rule="evenodd" d="M138.246 31.212C138.103 32.921 137.607 33.994 136.34 34.684C135.961 32.824 136.102 32.539 138.246 31.212Z" fill="#0794C5"/>
<path fill-rule="evenodd" clip-rule="evenodd" d="M151.526 31.533C153.105 31.967 153.624 33.052 153.568 34.727C151.911 34.152 151.58 32.939 151.526 31.533Z" fill="#0794C5"/>
<path fill-rule="evenodd" clip-rule="evenodd" d="M212.105 31.2789C211.92 32.9679 211.421 34.0529 210.103 34.7169C209.867 32.6959 210.033 32.3909 212.105 31.2789Z" fill="#0794C5"/>
<path fill-rule="evenodd" clip-rule="evenodd" d="M227.352 34.8059C225.832 34.0629 225.339 32.9769 225.185 31.6119C226.931 31.9429 227.161 32.2639 227.352 34.8059Z" fill="#0794C5"/>
<path fill-rule="evenodd" clip-rule="evenodd" d="M285.783 31.426C283.929 32.32 283.751 32.673 283.902 34.727C284.989 34.182 285.537 33.39 285.783 32.328V31.426Z" fill="#0794C5"/>
<path fill-rule="evenodd" clip-rule="evenodd" d="M264.313 238.553C264.39 240.492 263.807 241.546 262.179 242.276C262.091 240.558 262.756 239.549 264.313 238.553Z" fill="#0794C5"/>
<path fill-rule="evenodd" clip-rule="evenodd" d="M188.227 242.238C188.399 240.546 188.882 239.459 190.175 238.779C190.498 240.719 190.364 240.976 188.227 242.238Z" fill="#0794C5"/>
<path fill-rule="evenodd" clip-rule="evenodd" d="M116.436 238.761C116.569 240.897 116.409 241.172 114.42 242.09C114.509 240.545 115.021 239.443 116.436 238.761Z" fill="#0794C5"/>
<path fill-rule="evenodd" clip-rule="evenodd" d="M40.58 242.094C40.646 240.535 41.236 239.478 42.586 238.7C42.73 240.89 42.568 241.169 40.58 242.094Z" fill="#0794C5"/>
<path fill-rule="evenodd" clip-rule="evenodd" d="M227.424 217.266C227.467 219.197 226.908 220.263 225.318 220.959C225.147 219.222 225.875 218.241 227.424 217.266Z" fill="#0794C5"/>
<path fill-rule="evenodd" clip-rule="evenodd" d="M151.45 220.854C151.306 219.236 152.07 218.277 153.272 217.37C153.58 219.451 153.445 219.704 151.45 220.854Z" fill="#0794C5"/>
<path fill-rule="evenodd" clip-rule="evenodd" d="M27.468 95.115C27.342 96.828 26.844 97.901 25.567 98.584C25.188 96.721 25.316 96.464 27.468 95.115Z" fill="#0794C5"/>
<path fill-rule="evenodd" clip-rule="evenodd" d="M42.604 98.618C41.188 97.948 40.659 96.853 40.6 95.296C42.574 96.21 42.735 96.487 42.604 98.618Z" fill="#0794C5"/>
<path fill-rule="evenodd" clip-rule="evenodd" d="M99.063 98.619C99.014 96.886 99.613 95.881 100.913 95.208C101.229 97.104 101.069 97.403 99.063 98.619Z" fill="#0794C5"/>
<path fill-rule="evenodd" clip-rule="evenodd" d="M116.516 98.6C115.016 98.013 114.559 96.881 114.434 95.403C116.318 96.051 116.488 96.315 116.516 98.6Z" fill="#0794C5"/>
<path fill-rule="evenodd" clip-rule="evenodd" d="M172.908 98.617C173.214 96.382 173.214 96.382 174.771 95.316C175.071 97.104 174.912 97.402 172.908 98.617Z" fill="#0794C5"/>
<path fill-rule="evenodd" clip-rule="evenodd" d="M188.505 95.212C190.024 95.808 190.521 96.912 190.505 98.44C188.658 97.646 188.516 97.415 188.505 95.212Z" fill="#0794C5"/>
<path fill-rule="evenodd" clip-rule="evenodd" d="M246.783 98.659C246.655 96.962 247.254 95.909 248.822 95.078C248.977 96.878 248.389 97.937 246.783 98.659Z" fill="#0794C5"/>
<path fill-rule="evenodd" clip-rule="evenodd" d="M264.202 98.6C262.703 98.013 262.246 96.881 262.12 95.403C264.006 96.051 264.176 96.315 264.202 98.6Z" fill="#0794C5"/>
<path fill-rule="evenodd" clip-rule="evenodd" d="M3.65 50.861C3.755 48.859 4.357 47.82 5.85 46.984C6.029 48.801 5.348 49.798 3.65 50.861Z" fill="#0794C5"/>
<path fill-rule="evenodd" clip-rule="evenodd" d="M77.557 50.456C77.536 48.876 78.214 47.868 79.526 47.04C79.66 49.259 79.494 49.545 77.557 50.456Z" fill="#0794C5"/>
<path fill-rule="evenodd" clip-rule="evenodd" d="M151.402 50.456C151.372 48.875 152.059 47.872 153.366 47.04C153.503 49.263 153.343 49.539 151.402 50.456Z" fill="#0794C5"/>
<path fill-rule="evenodd" clip-rule="evenodd" d="M227.388 46.746C227.528 48.826 226.884 49.842 225.367 50.698C225.094 48.897 225.943 47.991 227.388 46.746Z" fill="#0794C5"/>
<path fill-rule="evenodd" clip-rule="evenodd" d="M262.113 156.941C262.173 155.377 262.761 154.323 264.099 153.539C264.273 155.699 264.111 155.98 262.113 156.941Z" fill="#0794C5"/>
<path fill-rule="evenodd" clip-rule="evenodd" d="M190.475 153.382C190.545 155.321 189.967 156.38 188.336 157.11C188.247 155.392 188.914 154.383 190.475 153.382Z" fill="#0794C5"/>
<path fill-rule="evenodd" clip-rule="evenodd" d="M114.377 157.282C114.548 155.358 115.009 154.218 116.565 153.578C116.818 155.269 116.113 156.26 114.377 157.282Z" fill="#0794C5"/>
<path fill-rule="evenodd" clip-rule="evenodd" d="M40.576 156.922C40.668 155.376 41.181 154.271 42.597 153.59C42.725 155.732 42.561 156.01 40.576 156.922Z" fill="#0794C5"/>
<path fill-rule="evenodd" clip-rule="evenodd" d="M225.323 135.664C225.128 134.056 225.871 133.091 227.129 132.289C227.42 134.289 227.276 134.558 225.323 135.664Z" fill="#0794C5"/>
<path fill-rule="evenodd" clip-rule="evenodd" d="M79.711 217.115C79.823 219.175 79.201 220.202 77.675 221.003C77.408 219.219 78.253 218.308 79.711 217.115Z" fill="#0794C5"/>
<path fill-rule="evenodd" clip-rule="evenodd" d="M5.877 217.25C5.98 219.171 5.359 220.201 3.84 220.998C3.566 219.219 4.357 218.279 5.877 217.25Z" fill="#0794C5"/>
<path fill-rule="evenodd" clip-rule="evenodd" d="M285.783 201.827C283.996 202.537 283.804 202.886 283.832 205.045C285.008 204.551 285.552 203.724 285.783 202.634V201.827Z" fill="#0794C5"/>
<path fill-rule="evenodd" clip-rule="evenodd" d="M225.172 201.713C227.161 202.617 227.351 202.944 227.2 205.051C225.799 204.369 225.29 203.27 225.172 201.713Z" fill="#0794C5"/>
<path fill-rule="evenodd" clip-rule="evenodd" d="M212.096 201.589C211.928 203.275 211.446 204.362 210.14 205.027C209.841 203.082 210.002 202.776 212.096 201.589Z" fill="#0794C5"/>
<path fill-rule="evenodd" clip-rule="evenodd" d="M153.414 205.035C151.947 204.428 151.469 203.303 151.348 201.788C153.26 202.523 153.453 202.837 153.414 205.035Z" fill="#0794C5"/>
<path fill-rule="evenodd" clip-rule="evenodd" d="M138.257 201.421C138.09 203.304 137.62 204.442 136.053 205.069C135.871 203.415 136.457 202.355 138.257 201.421Z" fill="#0794C5"/>
<path fill-rule="evenodd" clip-rule="evenodd" d="M79.688 205.117C78.142 204.428 77.678 203.316 77.486 201.972C79.192 202.206 79.445 202.544 79.688 205.117Z" fill="#0794C5"/>
<path fill-rule="evenodd" clip-rule="evenodd" d="M62.199 205.086C62.041 203.404 62.63 202.348 64.209 201.523C64.374 203.318 63.766 204.364 62.199 205.086Z" fill="#0794C5"/>
<path fill-rule="evenodd" clip-rule="evenodd" d="M3.739 201.439C5.416 202.408 5.984 203.426 5.869 205.037C4.201 204.404 3.751 203.275 3.739 201.439Z" fill="#0794C5"/>
<path fill-rule="evenodd" clip-rule="evenodd" d="M153.556 132.071C153.682 133.996 153.042 135.012 151.555 135.842C151.221 134.047 152.059 133.134 153.556 132.071Z" fill="#0794C5"/>
<path fill-rule="evenodd" clip-rule="evenodd" d="M77.488 136.026C77.607 134.02 78.198 132.977 79.707 132.152C79.859 133.975 79.188 134.978 77.488 136.026Z" fill="#0794C5"/>
<path fill-rule="evenodd" clip-rule="evenodd" d="M3.701 135.63C3.713 134.056 4.311 133.001 5.681 132.289C5.819 134.419 5.656 134.704 3.701 135.63Z" fill="#0794C5"/>
<path fill-rule="evenodd" clip-rule="evenodd" d="M27.339 114.642C25.765 113.646 25.102 112.668 25.248 111.011C26.904 111.683 27.425 112.779 27.339 114.642Z" fill="#0794C5"/>
<path fill-rule="evenodd" clip-rule="evenodd" d="M40.545 114.776C40.707 112.755 41.177 111.624 42.772 110.978C42.983 112.715 42.197 113.668 40.545 114.776Z" fill="#0794C5"/>
<path fill-rule="evenodd" clip-rule="evenodd" d="M285.783 159.053C283.746 160.369 283.633 160.634 284.027 162.441C285.02 161.879 285.556 161.096 285.783 159.937V159.053Z" fill="#0794C5"/>
<path fill-rule="evenodd" clip-rule="evenodd" d="M225.428 159.033C226.892 159.685 227.463 160.743 227.431 162.278C225.593 161.523 225.426 161.256 225.428 159.033Z" fill="#0794C5"/>
<path fill-rule="evenodd" clip-rule="evenodd" d="M212.059 158.975C211.965 160.692 211.434 161.739 210.181 162.44C209.782 160.595 209.896 160.365 212.059 158.975Z" fill="#0794C5"/>
<path fill-rule="evenodd" clip-rule="evenodd" d="M153.416 162.466C151.923 161.856 151.529 160.683 151.277 159.178C153.268 159.974 153.434 160.244 153.416 162.466Z" fill="#0794C5"/>
<path fill-rule="evenodd" clip-rule="evenodd" d="M138.221 158.973C138.12 160.698 137.582 161.745 136.331 162.45C135.942 160.587 136.057 160.359 138.221 158.973Z" fill="#0794C5"/>
<path fill-rule="evenodd" clip-rule="evenodd" d="M79.744 162.668C78.164 161.694 77.456 160.709 77.634 158.975C79.201 159.697 79.783 160.749 79.744 162.668Z" fill="#0794C5"/>
<path fill-rule="evenodd" clip-rule="evenodd" d="M62.127 162.482C62.082 160.748 62.735 159.775 63.964 159.029C64.32 160.944 64.173 161.225 62.127 162.482Z" fill="#0794C5"/>
<path fill-rule="evenodd" clip-rule="evenodd" d="M3.648 158.81C5.338 159.773 5.987 160.785 5.884 162.513C4.267 161.859 3.788 160.75 3.648 158.81Z" fill="#0794C5"/>
<path fill-rule="evenodd" clip-rule="evenodd" d="M262.106 199.67C262.216 197.962 262.727 196.897 264.002 196.211C264.369 198.087 264.248 198.324 262.106 199.67Z" fill="#0794C5"/>
<path fill-rule="evenodd" clip-rule="evenodd" d="M246.918 196.193C248.396 196.806 248.879 197.926 248.966 199.442C247.053 198.667 246.891 198.405 246.918 196.193Z" fill="#0794C5"/>
<path fill-rule="evenodd" clip-rule="evenodd" d="M188.329 199.538C188.265 197.941 188.955 196.929 190.252 196.095C190.447 198.244 190.307 198.496 188.329 199.538Z" fill="#0794C5"/>
<path fill-rule="evenodd" clip-rule="evenodd" d="M173.102 196.092C174.543 196.99 175.106 198.015 175.097 199.475C173.166 198.601 173.012 198.34 173.102 196.092Z" fill="#0794C5"/>
<path fill-rule="evenodd" clip-rule="evenodd" d="M116.653 196.178C116.724 197.922 116.06 198.889 114.816 199.617C114.493 197.683 114.635 197.412 116.653 196.178Z" fill="#0794C5"/>
<path fill-rule="evenodd" clip-rule="evenodd" d="M101.066 199.624C99.603 198.965 99.015 197.916 99.068 196.371C100.912 197.145 101.056 197.377 101.066 199.624Z" fill="#0794C5"/>
<path fill-rule="evenodd" clip-rule="evenodd" d="M42.73 196.199C42.998 197.812 42.293 198.815 40.987 199.615C40.634 197.713 40.771 197.446 42.73 196.199Z" fill="#0794C5"/>
<path fill-rule="evenodd" clip-rule="evenodd" d="M27.509 199.544C25.462 198.568 25.31 198.308 25.431 196.191C26.904 196.822 27.295 198 27.509 199.544Z" fill="#0794C5"/>
<path fill-rule="evenodd" clip-rule="evenodd" d="M99.189 110.932C100.685 111.734 101.195 112.797 101.277 114.203C99.443 113.617 99.266 113.347 99.189 110.932Z" fill="#0794C5"/>
<path fill-rule="evenodd" clip-rule="evenodd" d="M116.612 110.803C116.777 112.691 116.103 113.703 114.613 114.57C114.308 112.785 115.096 111.843 116.612 110.803Z" fill="#0794C5"/>
<path fill-rule="evenodd" clip-rule="evenodd" d="M175.127 114.346C173.148 113.402 172.996 113.142 173.116 111.017C174.547 111.681 175.065 112.785 175.127 114.346Z" fill="#0794C5"/>
<path fill-rule="evenodd" clip-rule="evenodd" d="M188.368 114.409C188.221 112.796 188.914 111.786 190.209 110.997C190.485 113.005 190.357 113.245 188.368 114.409Z" fill="#0794C5"/>
<path fill-rule="evenodd" clip-rule="evenodd" d="M40.615 71.494C41.079 69.529 41.079 69.529 42.592 68.541C42.741 70.668 42.326 71.289 40.615 71.494Z" fill="#0794C5"/>
<path fill-rule="evenodd" clip-rule="evenodd" d="M246.901 111.033C248.427 111.611 248.782 112.807 249.066 114.279C247.09 113.557 246.921 113.292 246.901 111.033Z" fill="#0794C5"/>
<path fill-rule="evenodd" clip-rule="evenodd" d="M116.563 68.491C116.835 70.093 116.117 71.079 114.804 71.862C114.493 69.948 114.651 69.652 116.563 68.491Z" fill="#0794C5"/>
<path fill-rule="evenodd" clip-rule="evenodd" d="M264.148 110.922C264.248 113.156 264.097 113.414 262.154 114.324C262.145 112.749 262.805 111.72 264.148 110.922Z" fill="#0794C5"/>
<path fill-rule="evenodd" clip-rule="evenodd" d="M190.492 68.432C190.549 70.174 189.912 71.154 188.646 71.859C188.334 69.954 188.491 69.659 190.492 68.432Z" fill="#0794C5"/>
<path fill-rule="evenodd" clip-rule="evenodd" d="M264.334 68.432C264.395 70.175 263.754 71.153 262.49 71.859C262.178 69.955 262.334 69.66 264.334 68.432Z" fill="#0794C5"/>
<path fill-rule="evenodd" clip-rule="evenodd" d="M3.882 73.876C5.372 74.503 5.913 75.577 5.911 77.093C4.08 76.389 3.923 76.146 3.882 73.876Z" fill="#0794C5"/>
<path fill-rule="evenodd" clip-rule="evenodd" d="M64.404 73.589C64.249 75.572 63.774 76.693 62.15 77.352C62.029 75.637 62.703 74.631 64.404 73.589Z" fill="#0794C5"/>
<path fill-rule="evenodd" clip-rule="evenodd" d="M77.478 73.668C79.206 74.579 79.777 75.639 79.781 77.362C78.113 76.704 77.643 75.589 77.478 73.668Z" fill="#0794C5"/>
<path fill-rule="evenodd" clip-rule="evenodd" d="M138.134 73.957C138.244 75.56 137.501 76.534 136.241 77.41C136.035 75.257 136.183 74.993 138.134 73.957Z" fill="#0794C5"/>
<path fill-rule="evenodd" clip-rule="evenodd" d="M153.377 77.411C151.966 76.481 151.373 75.473 151.395 74.004C153.322 74.893 153.48 75.162 153.377 77.411Z" fill="#0794C5"/>
<path fill-rule="evenodd" clip-rule="evenodd" d="M212.057 73.809C211.966 75.526 211.435 76.573 210.184 77.275C209.781 75.431 209.896 75.198 212.057 73.809Z" fill="#0794C5"/>
<path fill-rule="evenodd" clip-rule="evenodd" d="M227.434 77.502C225.851 76.53 225.142 75.544 225.32 73.809C226.889 74.531 227.47 75.584 227.434 77.502Z" fill="#0794C5"/>
<path fill-rule="evenodd" clip-rule="evenodd" d="M285.783 73.978C283.871 74.997 283.723 75.275 283.928 77.406C284.949 76.705 285.616 75.925 285.783 74.808V73.978Z" fill="#0794C5"/>
<path fill-rule="evenodd" clip-rule="evenodd" d="M3.662 116.605C5.583 117.379 5.779 117.704 5.713 119.876C4.271 119.24 3.767 118.134 3.662 116.605Z" fill="#0794C5"/>
<path fill-rule="evenodd" clip-rule="evenodd" d="M262.085 180.17C263.883 181.088 264.422 182.165 264.342 183.829C262.7 183.175 262.24 182.041 262.085 180.17Z" fill="#0794C5"/>
<path fill-rule="evenodd" clip-rule="evenodd" d="M248.996 180.279C248.873 181.994 248.372 183.067 247.097 183.75C246.719 181.889 246.847 181.631 248.996 180.279Z" fill="#0794C5"/>
<path fill-rule="evenodd" clip-rule="evenodd" d="M188.24 180.159C190.023 181.096 190.621 182.141 190.437 183.805C188.857 183.174 188.398 182.039 188.24 180.159Z" fill="#0794C5"/>
<path fill-rule="evenodd" clip-rule="evenodd" d="M172.939 183.825C172.814 182.125 173.411 181.072 174.98 180.246C175.133 182.041 174.547 183.102 172.939 183.825Z" fill="#0794C5"/>
<path fill-rule="evenodd" clip-rule="evenodd" d="M114.528 180.184C116.167 181.149 116.762 182.156 116.636 183.791C114.977 183.127 114.475 182.024 114.528 180.184Z" fill="#0794C5"/>
<path fill-rule="evenodd" clip-rule="evenodd" d="M101.309 180.279C101.186 181.994 100.686 183.067 99.411 183.75C99.032 181.889 99.16 181.631 101.309 180.279Z" fill="#0794C5"/>
<path fill-rule="evenodd" clip-rule="evenodd" d="M40.554 180.159C42.337 181.096 42.935 182.141 42.75 183.805C41.172 183.174 40.712 182.039 40.554 180.159Z" fill="#0794C5"/>
<path fill-rule="evenodd" clip-rule="evenodd" d="M27.447 180.331C27.397 182.058 26.752 183.051 25.538 183.823C25.22 181.819 25.357 181.555 27.447 180.331Z" fill="#0794C5"/>
<path fill-rule="evenodd" clip-rule="evenodd" d="M64.411 116.412C64.246 118.109 63.752 119.192 62.454 119.866C62.15 117.92 62.304 117.626 64.411 116.412Z" fill="#0794C5"/>
<path fill-rule="evenodd" clip-rule="evenodd" d="M77.464 116.261C79.27 117.206 79.86 118.254 79.657 119.898C78.104 119.271 77.637 118.141 77.464 116.261Z" fill="#0794C5"/>
<path fill-rule="evenodd" clip-rule="evenodd" d="M138.242 116.819C138.033 118.16 137.572 119.283 136.192 119.876C136.069 117.618 136.479 117.014 138.242 116.819Z" fill="#0794C5"/>
<path fill-rule="evenodd" clip-rule="evenodd" d="M153.366 119.885C151.963 119.205 151.431 118.12 151.353 116.574C153.302 117.429 153.494 117.756 153.366 119.885Z" fill="#0794C5"/>
<path fill-rule="evenodd" clip-rule="evenodd" d="M212.088 116.378C211.949 118.089 211.449 119.158 210.184 119.849C209.803 117.988 209.942 117.707 212.088 116.378Z" fill="#0794C5"/>
<path fill-rule="evenodd" clip-rule="evenodd" d="M225.195 116.625C227.101 117.355 227.296 117.673 227.258 119.874C225.801 119.26 225.307 118.142 225.195 116.625Z" fill="#0794C5"/>
<path fill-rule="evenodd" clip-rule="evenodd" d="M283.728 119.921C283.568 118.236 284.165 117.183 285.742 116.356C285.899 118.149 285.294 119.197 283.728 119.921Z" fill="#0794C5"/>
<path fill-rule="evenodd" clip-rule="evenodd" d="M3.633 93.204C3.787 91.513 4.275 90.431 5.576 89.766C5.894 91.698 5.751 91.975 3.633 93.204Z" fill="#0794C5"/>
<path fill-rule="evenodd" clip-rule="evenodd" d="M62.225 89.661C63.774 90.387 64.188 91.518 64.434 92.879C62.573 92.448 62.389 92.188 62.225 89.661Z" fill="#0794C5"/>
<path fill-rule="evenodd" clip-rule="evenodd" d="M79.749 89.7319C79.766 91.4599 79.22 92.4959 77.883 93.1319C77.577 91.2469 77.733 90.9539 79.749 89.7319Z" fill="#0794C5"/>
<path fill-rule="evenodd" clip-rule="evenodd" d="M137.994 92.946C136.21 91.842 136.21 91.842 136.074 89.736C137.676 90.383 138.066 91.554 137.994 92.946Z" fill="#0794C5"/>
<path fill-rule="evenodd" clip-rule="evenodd" d="M151.338 93.0929C151.432 91.5259 151.951 90.4229 153.359 89.7319C153.506 91.8619 153.349 92.1369 151.338 93.0929Z" fill="#0794C5"/>
<path fill-rule="evenodd" clip-rule="evenodd" d="M209.914 89.704C211.625 90.931 211.625 90.931 211.975 92.846C210.26 92.448 210.076 92.188 209.914 89.704Z" fill="#0794C5"/>
<path fill-rule="evenodd" clip-rule="evenodd" d="M227.424 89.5389C227.455 91.4149 226.944 92.5179 225.293 93.2359C225.151 91.5129 225.846 90.5159 227.424 89.5389Z" fill="#0794C5"/>
<path fill-rule="evenodd" clip-rule="evenodd" d="M285.783 92.093C285.483 91.041 285.022 90.197 283.816 89.764C283.83 91.938 284.004 92.276 285.783 92.919V92.093Z" fill="#0794C5"/>
<path fill-rule="evenodd" clip-rule="evenodd" d="M5.695 4.56201C5.804 6.72601 5.641 7.00301 3.666 7.89701C3.744 6.33901 4.271 5.23401 5.695 4.56201Z" fill="#0794C5"/>
<path fill-rule="evenodd" clip-rule="evenodd" d="M64.42 8.16C62.621 7.321 62.094 6.237 62.15 4.552C63.774 5.163 64.222 6.299 64.42 8.16Z" fill="#0794C5"/>
<path fill-rule="evenodd" clip-rule="evenodd" d="M79.737 4.37598C79.765 6.24798 79.258 7.35298 77.606 8.06998C77.467 6.34898 78.159 5.34998 79.737 4.37598Z" fill="#0794C5"/>
<path fill-rule="evenodd" clip-rule="evenodd" d="M135.975 4.422C137.589 5.298 138.183 6.35 138.185 8.035C136.442 7.406 135.992 6.273 135.975 4.422Z" fill="#0794C5"/>
<path fill-rule="evenodd" clip-rule="evenodd" d="M151.349 7.87695C151.446 6.33295 151.951 5.21495 153.4 4.56995C153.474 6.75895 153.311 7.03195 151.349 7.87695Z" fill="#0794C5"/>
<path fill-rule="evenodd" clip-rule="evenodd" d="M211.852 7.95596C210.278 7.41996 209.848 6.27596 209.816 4.78296C211.645 5.49796 211.772 5.69596 211.852 7.95596Z" fill="#0794C5"/>
<path fill-rule="evenodd" clip-rule="evenodd" d="M225.162 8.05502C225.309 6.35002 225.811 5.27402 227.1 4.59802C227.431 6.52102 227.294 6.78702 225.162 8.05502Z" fill="#0794C5"/>
<path fill-rule="evenodd" clip-rule="evenodd" d="M285.783 7.09003C285.508 5.88403 284.984 5.06403 283.694 4.55103C283.584 6.13703 284.124 7.14003 285.783 8.14003V7.09003Z" fill="#0794C5"/>
<path fill-rule="evenodd" clip-rule="evenodd" d="M25.316 13.4299C25.049 11.8289 25.698 10.8109 27.023 10.0549C27.432 11.8529 27.281 12.1529 25.316 13.4299Z" fill="#0794C5"/>
<path fill-rule="evenodd" clip-rule="evenodd" d="M42.814 13.58C41.139 12.75 40.709 11.611 40.542 9.92798C42.332 10.648 42.837 11.745 42.814 13.58Z" fill="#0794C5"/>
<path fill-rule="evenodd" clip-rule="evenodd" d="M99.068 13.636C99.023 11.759 99.556 10.667 101.199 9.95398C101.326 11.672 100.653 12.685 99.068 13.636Z" fill="#0794C5"/>
<path fill-rule="evenodd" clip-rule="evenodd" d="M116.678 13.586C115.032 12.747 114.49 11.668 114.435 9.98401C116.191 10.615 116.646 11.738 116.678 13.586Z" fill="#0794C5"/>
<path fill-rule="evenodd" clip-rule="evenodd" d="M175.129 10.0859C175.079 11.6639 174.533 12.7479 173.147 13.4589C172.966 11.3639 173.12 11.0909 175.129 10.0859Z" fill="#0794C5"/>
<path fill-rule="evenodd" clip-rule="evenodd" d="M190.399 13.532C188.887 12.767 188.395 11.689 188.277 10.301C190.096 10.786 190.279 11.054 190.399 13.532Z" fill="#0794C5"/>
<path fill-rule="evenodd" clip-rule="evenodd" d="M246.801 13.399C246.625 11.812 247.237 10.763 248.623 10.026C248.889 11.989 248.732 12.275 246.801 13.399Z" fill="#0794C5"/>
<path fill-rule="evenodd" clip-rule="evenodd" d="M264.16 13.4459C262.714 12.8109 262.207 11.7009 262.126 10.1589C264.076 10.9959 264.243 11.2749 264.16 13.4459Z" fill="#0794C5"/>
<path fill-rule="evenodd" clip-rule="evenodd" d="M62.271 260.095C63.785 260.661 64.226 261.805 64.376 263.269C62.499 262.672 62.328 262.412 62.271 260.095Z" fill="#0794C5"/>
<path fill-rule="evenodd" clip-rule="evenodd" d="M77.582 263.497C77.896 261.329 77.896 261.329 79.41 260.176C79.759 261.988 79.623 262.257 77.582 263.497Z" fill="#0794C5"/>
<path fill-rule="evenodd" clip-rule="evenodd" d="M138.219 263.389C136.24 262.505 136.074 262.22 136.191 260.075C137.621 260.732 138.121 261.841 138.219 263.389Z" fill="#0794C5"/>
<path fill-rule="evenodd" clip-rule="evenodd" d="M151.357 263.436C151.41 261.857 151.961 260.776 153.34 260.061C153.523 262.162 153.368 262.436 151.357 263.436Z" fill="#0794C5"/>
<path fill-rule="evenodd" clip-rule="evenodd" d="M211.881 263.26C210.255 262.788 209.777 261.675 209.82 260.04C211.514 260.647 211.844 261.867 211.881 263.26Z" fill="#0794C5"/>
<path fill-rule="evenodd" clip-rule="evenodd" d="M225.227 263.116C225.703 261.143 225.703 261.143 227.234 260.164C227.335 262.363 226.938 262.944 225.227 263.116Z" fill="#0794C5"/>
<path fill-rule="evenodd" clip-rule="evenodd" d="M285.783 262.603C285.512 261.358 284.97 260.534 283.68 260.049C283.627 261.674 284.122 262.742 285.783 263.564V262.603Z" fill="#0794C5"/>
<path fill-rule="evenodd" clip-rule="evenodd" d="M27.473 265.484C27.33 267.187 26.828 268.267 25.526 268.933C25.221 266.984 25.359 266.72 27.473 265.484Z" fill="#0794C5"/>
<path fill-rule="evenodd" clip-rule="evenodd" d="M40.792 265.547C42.34 266.118 42.81 267.233 42.826 268.736C41.004 268.033 40.871 267.83 40.792 265.547Z" fill="#0794C5"/>
<path fill-rule="evenodd" clip-rule="evenodd" d="M99.07 269.205C99.03 267.258 99.553 266.163 101.22 265.446C101.312 267.163 100.626 268.167 99.07 269.205Z" fill="#0794C5"/>
<path fill-rule="evenodd" clip-rule="evenodd" d="M114.412 265.401C116.52 266.815 116.52 266.815 116.498 268.936C115.018 268.333 114.544 267.205 114.412 265.401Z" fill="#0794C5"/>
<path fill-rule="evenodd" clip-rule="evenodd" d="M172.94 268.992C172.809 267.293 173.412 266.243 174.975 265.41C175.137 267.212 174.541 268.267 172.94 268.992Z" fill="#0794C5"/>
<path fill-rule="evenodd" clip-rule="evenodd" d="M188.229 265.349C190.004 266.197 190.532 267.285 190.536 269C188.875 268.353 188.418 267.226 188.229 265.349Z" fill="#0794C5"/>
<path fill-rule="evenodd" clip-rule="evenodd" d="M248.973 265.585C248.92 267.163 248.375 268.247 246.991 268.958C246.811 266.861 246.963 266.59 248.973 265.585Z" fill="#0794C5"/>
<path fill-rule="evenodd" clip-rule="evenodd" d="M262.123 265.618C264.107 266.548 264.27 266.828 264.128 268.949C262.714 268.276 262.193 267.18 262.123 265.618Z" fill="#0794C5"/>
<path fill-rule="evenodd" clip-rule="evenodd" d="M25.344 281.269C26.847 282.073 27.351 283.133 27.435 284.537C25.605 283.951 25.426 283.681 25.344 281.269Z" fill="#0794C5"/>
<path fill-rule="evenodd" clip-rule="evenodd" d="M42.768 281.14C42.964 283.046 42.204 284.011 40.766 284.947C40.474 283.12 41.249 282.168 42.768 281.14Z" fill="#0794C5"/>
<path fill-rule="evenodd" clip-rule="evenodd" d="M101.311 284.859C99.252 283.527 99.252 283.527 99.203 281.364C100.713 281.955 101.165 283.085 101.311 284.859Z" fill="#0794C5"/>
<path fill-rule="evenodd" clip-rule="evenodd" d="M116.48 281.425C116.545 283.402 116.545 283.402 114.808 284.664C114.476 282.879 114.613 282.615 116.48 281.425Z" fill="#0794C5"/>
<path fill-rule="evenodd" clip-rule="evenodd" d="M174.898 284.799C173.459 284.12 172.847 283.08 172.911 281.521C174.767 282.333 174.918 282.581 174.898 284.799Z" fill="#0794C5"/>
<path fill-rule="evenodd" clip-rule="evenodd" d="M188.385 284.746C188.205 283.126 188.918 282.133 190.19 281.335C190.504 283.3 190.38 283.534 188.385 284.746Z" fill="#0794C5"/>
<path fill-rule="evenodd" clip-rule="evenodd" d="M246.901 281.365C248.4 281.961 248.859 283.092 248.972 284.577C247.089 283.888 246.92 283.623 246.901 281.365Z" fill="#0794C5"/>
<path fill-rule="evenodd" clip-rule="evenodd" d="M262.198 284.749C262.073 283.132 262.794 282.137 264.045 281.268C264.328 283.336 264.199 283.578 262.198 284.749Z" fill="#0794C5"/>
<path fill-rule="evenodd" clip-rule="evenodd" d="M3.662 286.936C5.586 287.712 5.779 288.034 5.711 290.209C4.265 289.575 3.771 288.462 3.662 286.936Z" fill="#0794C5"/>
<path fill-rule="evenodd" clip-rule="evenodd" d="M62.15 290.423C62.102 288.551 62.621 287.453 64.263 286.707C64.424 288.436 63.715 289.42 62.15 290.423Z" fill="#0794C5"/>
<path fill-rule="evenodd" clip-rule="evenodd" d="M79.586 290.189C78.063 289.632 77.714 288.425 77.41 286.947C79.391 287.65 79.589 287.966 79.586 290.189Z" fill="#0794C5"/>
<path fill-rule="evenodd" clip-rule="evenodd" d="M138.164 286.79C137.807 288.975 137.807 288.975 136.293 290.107C135.987 288.266 136.139 287.973 138.164 286.79Z" fill="#0794C5"/>
<path fill-rule="evenodd" clip-rule="evenodd" d="M151.35 286.955C153.257 287.688 153.453 288.008 153.414 290.209C151.953 289.594 151.465 288.472 151.35 286.955Z" fill="#0794C5"/>
<path fill-rule="evenodd" clip-rule="evenodd" d="M209.846 290.381C209.767 288.477 210.402 287.453 212.026 286.613C212.039 288.428 211.427 289.474 209.846 290.381Z" fill="#0794C5"/>
<path fill-rule="evenodd" clip-rule="evenodd" d="M227.295 290.297C225.801 289.488 225.306 288.423 225.193 287.025C227.035 287.588 227.238 287.899 227.295 290.297Z" fill="#0794C5"/>
<path fill-rule="evenodd" clip-rule="evenodd" d="M285.783 286.847C283.85 287.957 283.691 288.303 283.983 290.193C285.012 289.668 285.527 288.872 285.783 287.732V286.847Z" fill="#0794C5"/>
<path fill-rule="evenodd" clip-rule="evenodd" d="M242.067 126.029C240.694 127.19 239.505 127.048 238.084 126.16C239.447 125.095 240.635 125.192 242.067 126.029Z" fill="#0794C5"/>
<path fill-rule="evenodd" clip-rule="evenodd" d="M273.045 125.984C271.641 127.183 270.458 127.048 269.04 126.181C270.373 125.033 271.56 125.268 273.045 125.984Z" fill="#0794C5"/>
<path fill-rule="evenodd" clip-rule="evenodd" d="M62.176 132.186C63.793 133.11 64.327 134.137 64.321 135.754C62.62 135.12 62.135 134.04 62.176 132.186Z" fill="#0794C5"/>
<path fill-rule="evenodd" clip-rule="evenodd" d="M138.135 135.777C136.485 135.095 135.941 134.045 136.042 132.361C137.661 133.001 138.174 134.07 138.135 135.777Z" fill="#0794C5"/>
<path fill-rule="evenodd" clip-rule="evenodd" d="M211.977 135.776C210.327 135.097 209.788 134.045 209.887 132.361C211.503 133.002 212.018 134.069 211.977 135.776Z" fill="#0794C5"/>
<path fill-rule="evenodd" clip-rule="evenodd" d="M285.783 134.915C285.619 133.705 285.057 132.877 283.715 132.36C283.647 134.02 284.153 135.079 285.783 135.737V134.915Z" fill="#0794C5"/>
<path fill-rule="evenodd" clip-rule="evenodd" d="M25.263 141.306C25.192 139.512 25.673 138.421 27.233 137.838C27.149 139.846 27.149 139.846 25.263 141.306Z" fill="#0794C5"/>
<path fill-rule="evenodd" clip-rule="evenodd" d="M42.559 141.167C41.197 140.535 40.721 139.464 40.608 138.045C42.48 138.622 42.741 139.044 42.559 141.167Z" fill="#0794C5"/>
<path fill-rule="evenodd" clip-rule="evenodd" d="M100.981 137.982C101.178 139.448 100.681 140.503 99.221 141.239C98.816 139.476 99.719 138.628 100.981 137.982Z" fill="#0794C5"/>
<path fill-rule="evenodd" clip-rule="evenodd" d="M114.703 137.997C116.121 138.631 116.858 139.564 116.541 141.171C114.939 140.561 114.594 139.383 114.703 137.997Z" fill="#0794C5"/>
<path fill-rule="evenodd" clip-rule="evenodd" d="M173.054 141.245C172.724 139.492 173.477 138.557 174.934 137.67C175.213 139.5 174.477 140.443 173.054 141.245Z" fill="#0794C5"/>
<path fill-rule="evenodd" clip-rule="evenodd" d="M190.551 141.361C188.588 139.866 188.588 139.866 188.484 137.845C190.076 138.398 190.472 139.536 190.551 141.361Z" fill="#0794C5"/>
<path fill-rule="evenodd" clip-rule="evenodd" d="M248.9 137.561C248.567 140.028 248.567 140.028 246.882 141.128C246.548 139.488 247.334 138.575 248.9 137.561Z" fill="#0794C5"/>
<path fill-rule="evenodd" clip-rule="evenodd" d="M262.184 137.594C263.818 138.531 264.446 139.53 264.303 141.167C262.543 140.052 262.543 140.052 262.184 137.594Z" fill="#0794C5"/>
<path fill-rule="evenodd" clip-rule="evenodd" d="M25.287 153.524C26.766 154.198 27.229 155.245 27.461 156.492C25.906 156.651 25.523 156.165 25.287 153.524Z" fill="#0794C5"/>
<path fill-rule="evenodd" clip-rule="evenodd" d="M99.079 153.376C101.061 155.046 101.061 155.046 101.001 156.973C99.497 156.301 99.016 155.204 99.079 153.376Z" fill="#0794C5"/>
<path fill-rule="evenodd" clip-rule="evenodd" d="M175.065 157.148C173.43 156.24 172.736 155.274 173.019 153.657C174.691 154.719 174.691 154.719 175.065 157.148Z" fill="#0794C5"/>
<path fill-rule="evenodd" clip-rule="evenodd" d="M246.743 153.436C248.372 154.311 248.867 155.364 248.971 156.963C247.16 156.395 246.766 155.261 246.743 153.436Z" fill="#0794C5"/>
<path fill-rule="evenodd" clip-rule="evenodd" d="M16.453 168.702C17.976 167.731 19.156 167.581 20.422 168.663C18.684 169.575 18.684 169.575 16.453 168.702Z" fill="#0794C5"/>
<path fill-rule="evenodd" clip-rule="evenodd" d="M51.617 168.729C50.092 169.563 48.938 169.615 47.677 168.901C49.176 167.611 49.176 167.611 51.617 168.729Z" fill="#0794C5"/>
<path fill-rule="evenodd" clip-rule="evenodd" d="M90.224 168.747C91.82 167.732 93 167.58 94.376 168.758C93.021 169.63 91.863 169.55 90.224 168.747Z" fill="#0794C5"/>
<path fill-rule="evenodd" clip-rule="evenodd" d="M121.229 168.762C122.742 167.658 123.925 167.648 125.341 168.741C123.975 169.59 122.821 169.601 121.229 168.762Z" fill="#0794C5"/>
<path fill-rule="evenodd" clip-rule="evenodd" d="M164.067 168.747C165.664 167.731 166.843 167.581 168.217 168.757C166.865 169.633 165.707 169.549 164.067 168.747Z" fill="#0794C5"/>
<path fill-rule="evenodd" clip-rule="evenodd" d="M195.028 168.714C196.63 167.712 197.802 167.616 199.199 168.788C197.783 169.561 196.631 169.615 195.028 168.714Z" fill="#0794C5"/>
<path fill-rule="evenodd" clip-rule="evenodd" d="M242.309 168.67C240.625 169.613 239.473 169.564 238.051 168.78C239.453 167.569 240.629 167.783 242.309 168.67Z" fill="#0794C5"/>
<path fill-rule="evenodd" clip-rule="evenodd" d="M272.942 168.813C271.666 169.6 270.508 169.537 269.191 168.998C270.635 167.583 271.016 167.564 272.942 168.813Z" fill="#0794C5"/>
<path fill-rule="evenodd" clip-rule="evenodd" d="M16.467 211.203C18.793 210.373 18.793 210.373 20.438 211.327C19.15 212.31 17.954 212.27 16.467 211.203Z" fill="#0794C5"/>
<path fill-rule="evenodd" clip-rule="evenodd" d="M47.713 211.229C49.347 210.374 49.347 210.374 51.201 211.11C49.844 212.342 49.388 212.357 47.713 211.229Z" fill="#0794C5"/>
<path fill-rule="evenodd" clip-rule="evenodd" d="M90.102 211.321C91.827 210.376 92.99 210.336 94.403 211.186C93.035 212.398 91.848 212.116 90.102 211.321Z" fill="#0794C5"/>
<path fill-rule="evenodd" clip-rule="evenodd" d="M121.223 211.165C122.848 210.389 124.016 210.307 125.321 211.263C123.93 212.278 122.732 212.302 121.223 211.165Z" fill="#0794C5"/>
<path fill-rule="evenodd" clip-rule="evenodd" d="M164.238 211.27C165.633 210.307 166.83 210.284 168.216 211.255C166.839 212.311 165.641 212.268 164.238 211.27Z" fill="#0794C5"/>
<path fill-rule="evenodd" clip-rule="evenodd" d="M199.166 211.292C197.768 212.246 196.568 212.332 195.186 211.234C196.597 210.311 197.795 210.28 199.166 211.292Z" fill="#0794C5"/>
<path fill-rule="evenodd" clip-rule="evenodd" d="M237.969 211.327C240.108 210.376 240.108 210.376 241.987 211.25C240.723 212.373 239.539 212.171 237.969 211.327Z" fill="#0794C5"/>
<path fill-rule="evenodd" clip-rule="evenodd" d="M268.85 211.285C270.432 210.333 271.596 210.376 273.021 211.165C271.662 212.359 270.48 212.186 268.85 211.285Z" fill="#0794C5"/>
<path fill-rule="evenodd" clip-rule="evenodd" d="M64.258 221.099C62.746 220.18 62.067 219.242 62.166 217.753C63.946 218.425 63.969 218.457 64.258 221.099Z" fill="#0794C5"/>
<path fill-rule="evenodd" clip-rule="evenodd" d="M135.898 217.365C137.87 218.775 137.87 218.775 138.047 220.853C136.434 220.331 136.064 219.183 135.898 217.365Z" fill="#0794C5"/>
<path fill-rule="evenodd" clip-rule="evenodd" d="M212 221.137C210.431 220.139 209.645 219.229 209.961 217.594C211.643 218.645 211.643 218.645 212 221.137Z" fill="#0794C5"/>
<path fill-rule="evenodd" clip-rule="evenodd" d="M285.783 220.009C285.528 218.833 285.032 217.999 283.692 217.5C283.62 219.122 284.165 220.145 285.783 220.985V220.009Z" fill="#0794C5"/>
<path fill-rule="evenodd" clip-rule="evenodd" d="M25.296 226.502C25.091 224.614 25.83 223.683 27.383 222.735C27.406 224.566 26.854 225.585 25.296 226.502Z" fill="#0794C5"/>
<path fill-rule="evenodd" clip-rule="evenodd" d="M40.666 222.936C42.352 223.598 42.863 224.67 42.76 226.347C41.157 225.706 40.645 224.635 40.666 222.936Z" fill="#0794C5"/>
<path fill-rule="evenodd" clip-rule="evenodd" d="M100.989 223.148C101.17 224.613 100.685 225.677 99.216 226.399C98.822 224.638 99.722 223.785 100.989 223.148Z" fill="#0794C5"/>
<path fill-rule="evenodd" clip-rule="evenodd" d="M114.706 223.168C116.107 223.722 116.762 224.682 116.615 226.321C114.981 225.736 114.566 224.616 114.706 223.168Z" fill="#0794C5"/>
<path fill-rule="evenodd" clip-rule="evenodd" d="M174.996 222.744C175.156 224.657 174.449 225.627 173.037 226.485C172.713 224.622 173.531 223.716 174.996 222.744Z" fill="#0794C5"/>
<path fill-rule="evenodd" clip-rule="evenodd" d="M188.252 222.685C189.94 223.7 190.587 224.66 190.471 226.321C188.84 225.747 188.414 224.637 188.252 222.685Z" fill="#0794C5"/>
<path fill-rule="evenodd" clip-rule="evenodd" d="M246.793 226.418C246.655 224.676 247.306 223.711 248.552 222.953C248.902 224.805 248.843 224.927 246.793 226.418Z" fill="#0794C5"/>
<path fill-rule="evenodd" clip-rule="evenodd" d="M264.121 226.323C262.723 225.731 262.269 224.642 262.132 223.243C263.97 223.73 264.237 224.146 264.121 226.323Z" fill="#0794C5"/>
<path fill-rule="evenodd" clip-rule="evenodd" d="M27.379 242.309C25.741 241.403 25.047 240.439 25.335 238.822C27.008 239.888 27.008 239.888 27.379 242.309Z" fill="#0794C5"/>
<path fill-rule="evenodd" clip-rule="evenodd" d="M101.223 242.156C99.498 241.523 99.025 240.431 99.1 238.756C100.695 239.403 101.215 240.468 101.223 242.156Z" fill="#0794C5"/>
<path fill-rule="evenodd" clip-rule="evenodd" d="M175.065 242.309C173.427 241.403 172.732 240.439 173.021 238.822C174.694 239.888 174.694 239.888 175.065 242.309Z" fill="#0794C5"/>
<path fill-rule="evenodd" clip-rule="evenodd" d="M249.014 242.369C247.274 241.4 246.575 240.44 246.879 238.741C248.345 239.381 248.82 240.459 249.014 242.369Z" fill="#0794C5"/>
<path fill-rule="evenodd" clip-rule="evenodd" d="M16.381 253.913C17.977 252.898 19.156 252.747 20.531 253.923C19.178 254.802 18.021 254.714 16.381 253.913Z" fill="#0794C5"/>
<path fill-rule="evenodd" clip-rule="evenodd" d="M51.376 254.028C50.093 254.723 48.939 254.785 47.68 254.066C49.211 252.746 49.604 252.739 51.376 254.028Z" fill="#0794C5"/>
<path fill-rule="evenodd" clip-rule="evenodd" d="M90.34 253.987C91.775 252.781 92.948 252.868 94.358 253.782C93.031 254.939 91.849 254.669 90.34 253.987Z" fill="#0794C5"/>
<path fill-rule="evenodd" clip-rule="evenodd" d="M125.438 253.863C123.198 254.739 123.198 254.739 121.449 253.825C122.72 252.747 123.899 252.904 125.438 253.863Z" fill="#0794C5"/>
<path fill-rule="evenodd" clip-rule="evenodd" d="M168.427 253.847C166.096 254.743 166.096 254.743 164.351 253.804C165.638 252.74 166.822 252.933 168.427 253.847Z" fill="#0794C5"/>
<path fill-rule="evenodd" clip-rule="evenodd" d="M199.343 253.904C197.7 254.759 196.545 254.721 195.119 253.971C196.563 252.75 197.742 252.9 199.343 253.904Z" fill="#0794C5"/>
<path fill-rule="evenodd" clip-rule="evenodd" d="M237.934 253.936C239.491 252.871 240.675 252.767 242.064 253.897C240.734 254.811 239.572 254.71 237.934 253.936Z" fill="#0794C5"/>
<path fill-rule="evenodd" clip-rule="evenodd" d="M272.907 254.028C271.623 254.726 270.469 254.783 269.209 254.066C270.74 252.746 271.133 252.739 272.907 254.028Z" fill="#0794C5"/>
<path fill-rule="evenodd" clip-rule="evenodd" d="M20.525 40.928C19.146 41.98 17.949 41.9369 16.55 40.9309C17.948 39.9849 19.145 39.941 20.525 40.928Z" fill="#0794C5"/>
<path fill-rule="evenodd" clip-rule="evenodd" d="M47.337 40.923C48.936 39.97 50.096 40.152 51.602 40.766C50.117 42.014 48.935 41.879 47.337 40.923Z" fill="#0794C5"/>
<path fill-rule="evenodd" clip-rule="evenodd" d="M90.489 40.8279C91.742 40.0059 92.907 40.0309 94.176 40.6969C92.771 42.0179 92.353 42.0339 90.489 40.8279Z" fill="#0794C5"/>
<path fill-rule="evenodd" clip-rule="evenodd" d="M125.335 40.887C123.934 41.978 122.739 41.935 121.357 40.968C122.703 39.901 123.897 40.03 125.335 40.887Z" fill="#0794C5"/>
<path fill-rule="evenodd" clip-rule="evenodd" d="M168.301 40.9C166.821 41.937 165.629 41.974 164.342 40.971C166.096 40.041 166.096 40.041 168.301 40.9Z" fill="#0794C5"/>
<path fill-rule="evenodd" clip-rule="evenodd" d="M199.238 40.917C197.745 41.991 196.562 41.895 195.175 41.012C197.045 40.043 197.045 40.043 199.238 40.917Z" fill="#0794C5"/>
<path fill-rule="evenodd" clip-rule="evenodd" d="M242.396 40.799C240.038 41.892 240.038 41.892 238.179 40.957C239.434 39.817 240.626 40.189 242.396 40.799Z" fill="#0794C5"/>
<path fill-rule="evenodd" clip-rule="evenodd" d="M268.844 40.943C270.433 40.013 271.597 40.03 273.023 40.843C271.667 42.017 270.488 41.861 268.844 40.943Z" fill="#0794C5"/>
<path fill-rule="evenodd" clip-rule="evenodd" d="M62.217 47.103C63.775 47.86 64.264 48.919 64.355 50.351C62.521 49.722 62.454 49.624 62.217 47.103Z" fill="#0794C5"/>
<path fill-rule="evenodd" clip-rule="evenodd" d="M135.936 46.973C137.635 47.943 138.167 48.971 138.163 50.591C136.441 49.967 136.021 48.846 135.936 46.973Z" fill="#0794C5"/>
<path fill-rule="evenodd" clip-rule="evenodd" d="M209.86 47.012C211.472 47.944 212.017 48.966 212.002 50.585C210.306 49.953 209.821 48.87 209.86 47.012Z" fill="#0794C5"/>
<path fill-rule="evenodd" clip-rule="evenodd" d="M285.642 50.371C284.25 49.825 283.579 48.874 283.713 47.228C285.366 47.794 285.764 48.926 285.642 50.371Z" fill="#0794C5"/>
<path fill-rule="evenodd" clip-rule="evenodd" d="M27.317 52.572C27.454 54.316 26.844 55.343 25.316 56.033C25.109 54.338 25.717 53.31 27.317 52.572Z" fill="#0794C5"/>
<path fill-rule="evenodd" clip-rule="evenodd" d="M40.507 52.5389C42.368 53.2569 42.814 54.3679 42.832 56.0249C41.081 55.4209 40.782 54.2209 40.507 52.5389Z" fill="#0794C5"/>
<path fill-rule="evenodd" clip-rule="evenodd" d="M100.983 52.8149C101.178 54.2789 100.681 55.3359 99.221 56.0719C98.816 54.3089 99.72 53.4609 100.983 52.8149Z" fill="#0794C5"/>
<path fill-rule="evenodd" clip-rule="evenodd" d="M116.596 56.022C115.009 55.367 114.484 54.302 114.512 52.604C116.196 53.271 116.714 54.342 116.596 56.022Z" fill="#0794C5"/>
<path fill-rule="evenodd" clip-rule="evenodd" d="M175.072 52.282C174.722 54.861 174.722 54.861 173.028 55.97C172.671 54.304 173.557 53.442 175.072 52.282Z" fill="#0794C5"/>
<path fill-rule="evenodd" clip-rule="evenodd" d="M190.439 56.021C188.852 55.366 188.324 54.304 188.356 52.605C190.04 53.272 190.556 54.342 190.439 56.021Z" fill="#0794C5"/>
<path fill-rule="evenodd" clip-rule="evenodd" d="M249.005 52.327C248.848 54.299 248.365 55.371 246.901 56.049C246.548 54.321 247.336 53.408 249.005 52.327Z" fill="#0794C5"/>
<path fill-rule="evenodd" clip-rule="evenodd" d="M262.167 52.6119C263.894 53.2539 264.377 54.3409 264.303 56.0139C262.681 55.3839 262.201 54.2949 262.167 52.6119Z" fill="#0794C5"/>
<path fill-rule="evenodd" clip-rule="evenodd" d="M25.289 68.412C26.833 69.094 27.413 70.129 27.34 71.829C25.659 71.172 25.15 70.095 25.289 68.412Z" fill="#0794C5"/>
<path fill-rule="evenodd" clip-rule="evenodd" d="M99.058 68.312C100.94 69.711 100.94 69.711 101.095 71.738C99.472 71.229 99.078 70.095 99.058 68.312Z" fill="#0794C5"/>
<path fill-rule="evenodd" clip-rule="evenodd" d="M174.945 71.5461C173.141 70.5531 173.141 70.5531 173.019 68.4561C174.596 69.0211 174.917 70.1991 174.945 71.5461Z" fill="#0794C5"/>
<path fill-rule="evenodd" clip-rule="evenodd" d="M248.865 71.979C247.296 71.111 246.684 70.134 246.764 68.665C248.537 69.342 248.537 69.342 248.865 71.979Z" fill="#0794C5"/>
<path fill-rule="evenodd" clip-rule="evenodd" d="M16.426 83.716C17.929 82.386 19.11 82.624 20.58 83.399C19.188 84.625 18.003 84.264 16.426 83.716Z" fill="#0794C5"/>
<path fill-rule="evenodd" clip-rule="evenodd" d="M47.761 83.588C48.916 82.516 50.073 82.539 51.453 83.423C50.13 84.629 48.949 84.271 47.761 83.588Z" fill="#0794C5"/>
<path fill-rule="evenodd" clip-rule="evenodd" d="M90.277 83.5079C91.842 82.5869 93.015 82.4119 94.277 83.5069C92.498 84.4049 92.498 84.4049 90.277 83.5079Z" fill="#0794C5"/>
<path fill-rule="evenodd" clip-rule="evenodd" d="M125.446 83.558C123.933 84.441 122.78 84.373 121.464 83.784C123.018 82.443 123.018 82.443 125.446 83.558Z" fill="#0794C5"/>
<path fill-rule="evenodd" clip-rule="evenodd" d="M164.09 83.6049C165.649 82.5359 166.833 82.4379 168.224 83.5639C166.893 84.4819 165.729 84.3759 164.09 83.6049Z" fill="#0794C5"/>
<path fill-rule="evenodd" clip-rule="evenodd" d="M195.114 83.5649C196.587 82.4909 197.77 82.4819 199.058 83.4759C197.313 84.4119 197.313 84.4119 195.114 83.5649Z" fill="#0794C5"/>
<path fill-rule="evenodd" clip-rule="evenodd" d="M237.945 83.712C239.459 82.396 240.637 82.61 242.104 83.403C240.718 84.622 239.533 84.264 237.945 83.712Z" fill="#0794C5"/>
<path fill-rule="evenodd" clip-rule="evenodd" d="M269.02 83.5749C270.419 82.4339 271.605 82.5389 273.017 83.5059C271.632 84.4979 270.449 84.4669 269.02 83.5749Z" fill="#0794C5"/>
<path fill-rule="evenodd" clip-rule="evenodd" d="M16.557 126.121C17.936 125.121 19.133 125.142 20.536 126.073C19.153 127.162 17.956 127.086 16.557 126.121Z" fill="#0794C5"/>
<path fill-rule="evenodd" clip-rule="evenodd" d="M51.623 125.886C50.113 127.245 48.924 126.967 47.453 126.25C48.839 124.955 50.035 125.392 51.623 125.886Z" fill="#0794C5"/>
<path fill-rule="evenodd" clip-rule="evenodd" d="M90.485 125.995C91.739 125.173 92.905 125.202 94.174 125.858C92.772 127.183 92.353 127.2 90.485 125.995Z" fill="#0794C5"/>
<path fill-rule="evenodd" clip-rule="evenodd" d="M121.209 126.036C122.815 125.2 123.981 125.17 125.331 126.058C123.938 127.145 122.744 127.097 121.209 126.036Z" fill="#0794C5"/>
<path fill-rule="evenodd" clip-rule="evenodd" d="M168.32 126.022C166.826 127.2 165.636 127.026 164.129 126.134C165.673 125.117 166.863 125.234 168.32 126.022Z" fill="#0794C5"/>
<path fill-rule="evenodd" clip-rule="evenodd" d="M195.184 126.072C196.59 125.142 197.788 125.119 199.167 126.123C197.766 127.083 196.568 127.162 195.184 126.072Z" fill="#0794C5"/>
<path fill-rule="evenodd" clip-rule="evenodd" d="M14.551 189.951C13.051 190.97 11.932 190.892 10.53 190.023C11.931 189.008 13.051 189.081 14.551 189.951Z" fill="#0794C5"/>
<path fill-rule="evenodd" clip-rule="evenodd" d="M53.81 189.748C54.965 189.079 56.074 189.038 57.225 189.784C55.693 191.104 55.22 191.096 53.81 189.748Z" fill="#0794C5"/>
<path fill-rule="evenodd" clip-rule="evenodd" d="M88.331 189.972C86.978 190.936 85.882 190.919 84.731 190.247C85.805 188.961 85.959 188.943 88.331 189.972Z" fill="#0794C5"/>
<path fill-rule="evenodd" clip-rule="evenodd" d="M131.374 189.965C129.89 190.97 128.775 190.875 127.308 190.016C128.765 189.055 129.881 189.038 131.374 189.965Z" fill="#0794C5"/>
<path fill-rule="evenodd" clip-rule="evenodd" d="M161.92 190.15C160.797 190.948 159.686 190.932 158.541 190.207C159.848 188.888 160.409 188.878 161.92 190.15Z" fill="#0794C5"/>
<path fill-rule="evenodd" clip-rule="evenodd" d="M201.161 189.954C202.678 189.078 203.799 189.016 205.147 189.989C203.782 190.953 202.66 190.933 201.161 189.954Z" fill="#0794C5"/>
<path fill-rule="evenodd" clip-rule="evenodd" d="M236.132 189.9C234.635 190.934 233.52 190.944 232.133 190.042C233.38 188.984 234.51 189.105 236.132 189.9Z" fill="#0794C5"/>
<path fill-rule="evenodd" clip-rule="evenodd" d="M275.188 189.892C276.445 189.051 277.564 189.04 278.791 189.796C277.199 191.05 277.199 191.05 275.188 189.892Z" fill="#0794C5"/>
<path fill-rule="evenodd" clip-rule="evenodd" d="M14.642 275.071C13.05 276.102 11.93 276.108 10.585 275.165C11.93 274.136 13.051 274.305 14.642 275.071Z" fill="#0794C5"/>
<path fill-rule="evenodd" clip-rule="evenodd" d="M53.81 274.914C54.965 274.244 56.077 274.203 57.224 274.953C55.692 276.271 55.22 276.264 53.81 274.914Z" fill="#0794C5"/>
<path fill-rule="evenodd" clip-rule="evenodd" d="M88.401 275.103C86.92 276.135 85.798 276.065 84.378 275.202C85.747 274.18 86.871 274.243 88.401 275.103Z" fill="#0794C5"/>
<path fill-rule="evenodd" clip-rule="evenodd" d="M131.39 275.124C129.901 276.113 128.783 276.099 127.385 275.145C128.749 274.218 129.864 274.208 131.39 275.124Z" fill="#0794C5"/>
<path fill-rule="evenodd" clip-rule="evenodd" d="M162.266 275.085C160.781 276.103 159.662 276.11 158.274 275.182C159.568 274.163 160.699 274.262 162.266 275.085Z" fill="#0794C5"/>
<path fill-rule="evenodd" clip-rule="evenodd" d="M205.033 275.238C203.792 276.112 202.671 276.099 201.461 275.322C202.99 274.103 203.087 274.099 205.033 275.238Z" fill="#0794C5"/>
<path fill-rule="evenodd" clip-rule="evenodd" d="M235.944 275.206C234.603 276.109 233.492 276.105 232.357 275.346C233.721 274.109 233.818 274.103 235.944 275.206Z" fill="#0794C5"/>
<path fill-rule="evenodd" clip-rule="evenodd" d="M278.85 275.255C277.621 276.116 276.504 276.1 275.294 275.302C276.92 274.095 276.982 274.093 278.85 275.255Z" fill="#0794C5"/>
<path fill-rule="evenodd" clip-rule="evenodd" d="M131.189 104.907C129.949 105.779 128.828 105.767 127.618 104.989C129.145 103.772 129.248 103.769 131.189 104.907Z" fill="#0794C5"/>
<path fill-rule="evenodd" clip-rule="evenodd" d="M84.443 104.737C85.83 103.861 86.931 103.94 88.109 104.583C86.625 105.872 86.59 105.874 84.443 104.737Z" fill="#0794C5"/>
<path fill-rule="evenodd" clip-rule="evenodd" d="M57.414 104.882C56.07 105.768 54.959 105.786 53.83 105.005C55.146 103.789 55.313 103.778 57.414 104.882Z" fill="#0794C5"/>
<path fill-rule="evenodd" clip-rule="evenodd" d="M10.594 104.789C12.481 103.977 12.481 103.977 14.18 104.605C12.924 105.853 12.813 105.862 10.594 104.789Z" fill="#0794C5"/>
<path fill-rule="evenodd" clip-rule="evenodd" d="M278.84 104.924C277.619 105.807 276.5 105.717 275.24 105.004C276.935 103.763 276.994 103.762 278.84 104.924Z" fill="#0794C5"/>
<path fill-rule="evenodd" clip-rule="evenodd" d="M232.105 104.885C234.067 103.894 234.067 103.894 235.928 104.88C234.663 105.757 233.545 105.775 232.105 104.885Z" fill="#0794C5"/>
<path fill-rule="evenodd" clip-rule="evenodd" d="M205.1 104.882C203.755 105.768 202.646 105.786 201.516 105.005C202.832 103.789 203 103.778 205.1 104.882Z" fill="#0794C5"/>
<path fill-rule="evenodd" clip-rule="evenodd" d="M162.129 104.886C160.205 105.669 160.205 105.669 158.537 104.995C159.879 103.777 159.972 103.771 162.129 104.886Z" fill="#0794C5"/>
<path fill-rule="evenodd" clip-rule="evenodd" d="M279.236 62.2519C277.479 63.1029 276.31 63.2219 275.076 62.2309C276.404 61.1499 277.607 61.3689 279.236 62.2519Z" fill="#0794C5"/>
<path fill-rule="evenodd" clip-rule="evenodd" d="M236.063 62.212C234.691 63.176 233.495 63.198 232.129 62.246C233.479 61.227 234.676 61.285 236.063 62.212Z" fill="#0794C5"/>
<path fill-rule="evenodd" clip-rule="evenodd" d="M205.211 62.22C203.116 63.122 203.116 63.122 201.27 62.235C202.542 61.207 203.729 61.316 205.211 62.22Z" fill="#0794C5"/>
<path fill-rule="evenodd" clip-rule="evenodd" d="M158.281 62.2709C159.623 61.2069 160.807 61.3169 162.223 62.1839C160.848 63.1969 159.664 63.1649 158.281 62.2709Z" fill="#0794C5"/>
<path fill-rule="evenodd" clip-rule="evenodd" d="M131.277 62.191C129.952 63.248 128.756 63.121 127.343 62.276C128.711 61.229 129.908 61.287 131.277 62.191Z" fill="#0794C5"/>
<path fill-rule="evenodd" clip-rule="evenodd" d="M88.664 62.193C86.917 63.108 85.752 63.207 84.459 62.264C85.779 61.122 86.971 61.427 88.664 62.193Z" fill="#0794C5"/>
<path fill-rule="evenodd" clip-rule="evenodd" d="M53.434 62.215C54.869 61.289 56.028 61.273 57.264 62.054C55.854 63.193 55.722 63.203 53.434 62.215Z" fill="#0794C5"/>
<path fill-rule="evenodd" clip-rule="evenodd" d="M14.537 62.276C13.125 63.119 11.929 63.247 10.606 62.192C11.975 61.282 13.169 61.234 14.537 62.276Z" fill="#0794C5"/>
<path fill-rule="evenodd" clip-rule="evenodd" d="M10.539 147.379C11.947 146.441 13.105 146.448 14.35 147.219C12.887 148.36 12.741 148.369 10.539 147.379Z" fill="#0794C5"/>
<path fill-rule="evenodd" clip-rule="evenodd" d="M53.396 147.446C55.521 146.485 55.521 146.485 57.371 147.372C56.127 148.434 54.947 148.242 53.396 147.446Z" fill="#0794C5"/>
<path fill-rule="evenodd" clip-rule="evenodd" d="M84.453 147.377C85.801 146.427 87.004 146.413 88.377 147.419C86.981 148.307 85.777 148.405 84.453 147.377Z" fill="#0794C5"/>
<path fill-rule="evenodd" clip-rule="evenodd" d="M131.413 147.439C129.842 148.305 128.677 148.345 127.361 147.429C128.709 146.39 129.9 146.461 131.413 147.439Z" fill="#0794C5"/>
<path fill-rule="evenodd" clip-rule="evenodd" d="M162.22 147.359C160.864 148.356 159.671 148.343 158.284 147.432C159.633 146.376 160.827 146.472 162.22 147.359Z" fill="#0794C5"/>
<path fill-rule="evenodd" clip-rule="evenodd" d="M201.038 147.401C202.621 146.467 203.784 146.42 205.101 147.345C203.792 148.43 202.608 148.252 201.038 147.401Z" fill="#0794C5"/>
<path fill-rule="evenodd" clip-rule="evenodd" d="M10.609 232.544C11.957 231.591 13.16 231.577 14.533 232.585C13.138 233.475 11.934 233.571 10.609 232.544Z" fill="#0794C5"/>
<path fill-rule="evenodd" clip-rule="evenodd" d="M57.515 232.581C56.077 233.506 54.916 233.472 53.666 232.736C55.181 231.572 55.262 231.567 57.515 232.581Z" fill="#0794C5"/>
<path fill-rule="evenodd" clip-rule="evenodd" d="M88.375 232.566C87.003 233.492 85.798 233.553 84.449 232.563C85.799 231.574 87.004 231.597 88.375 232.566Z" fill="#0794C5"/>
<path fill-rule="evenodd" clip-rule="evenodd" d="M131.361 232.518C129.892 233.6 128.707 233.396 127.245 232.627C128.743 231.532 129.932 231.661 131.361 232.518Z" fill="#0794C5"/>
<path fill-rule="evenodd" clip-rule="evenodd" d="M162.288 232.433C160.867 233.659 159.669 233.343 158.176 232.715C159.63 231.441 160.829 231.759 162.288 232.433Z" fill="#0794C5"/>
<path fill-rule="evenodd" clip-rule="evenodd" d="M201.043 232.591C202.594 231.664 203.778 231.523 205.101 232.604C203.798 233.537 202.636 233.442 201.043 232.591Z" fill="#0794C5"/>
<path fill-rule="evenodd" clip-rule="evenodd" d="M236.22 232.552C234.649 233.471 233.488 233.507 232.127 232.628C233.456 231.52 234.639 231.686 236.22 232.552Z" fill="#0794C5"/>
<path fill-rule="evenodd" clip-rule="evenodd" d="M274.932 232.645C276.42 231.515 277.614 231.673 279.038 232.5C277.592 233.622 276.4 233.378 274.932 232.645Z" fill="#0794C5"/>
<path fill-rule="evenodd" clip-rule="evenodd" d="M236.186 147.415C234.601 148.336 233.443 148.226 232.027 147.514C233.468 146.369 234.655 146.487 236.186 147.415Z" fill="#0794C5"/>
<path fill-rule="evenodd" clip-rule="evenodd" d="M278.971 147.412C277.603 148.363 276.405 148.344 275.035 147.378C276.422 146.448 277.619 146.396 278.971 147.412Z" fill="#0794C5"/>
<path fill-rule="evenodd" clip-rule="evenodd" d="M275.037 19.665C276.497 18.667 277.61 18.757 279.071 19.614C277.66 20.593 276.542 20.61 275.037 19.665Z" fill="#0794C5"/>
<path fill-rule="evenodd" clip-rule="evenodd" d="M235.944 19.698C234.606 20.616 233.495 20.604 232.361 19.848C233.716 18.613 233.809 18.607 235.944 19.698Z" fill="#0794C5"/>
<path fill-rule="evenodd" clip-rule="evenodd" d="M201.161 19.6169C202.685 18.7489 203.804 18.6829 205.142 19.6579C203.783 20.6239 202.664 20.6009 201.161 19.6169Z" fill="#0794C5"/>
<path fill-rule="evenodd" clip-rule="evenodd" d="M158.204 19.688C159.64 18.678 160.755 18.746 162.209 19.615C160.84 20.588 159.724 20.611 158.204 19.688Z" fill="#0794C5"/>
<path fill-rule="evenodd" clip-rule="evenodd" d="M131.251 19.716C129.909 20.605 128.801 20.616 127.673 19.84C128.992 18.624 129.161 18.612 131.251 19.716Z" fill="#0794C5"/>
<path fill-rule="evenodd" clip-rule="evenodd" d="M88.213 19.732C86.965 20.594 85.846 20.62 84.633 19.834C86.167 18.598 86.202 18.597 88.213 19.732Z" fill="#0794C5"/>
<path fill-rule="evenodd" clip-rule="evenodd" d="M57.348 19.74C56.107 20.614 54.987 20.602 53.778 19.822C55.303 18.604 55.401 18.602 57.348 19.74Z" fill="#0794C5"/>
<path fill-rule="evenodd" clip-rule="evenodd" d="M10.51 19.662C11.981 18.695 13.096 18.736 14.516 19.626C13.126 20.598 12.008 20.613 10.51 19.662Z" fill="#0794C5"/>
</g>
</g>
<defs>
<clipPath id="clip0_522_10440">
<rect width="287.996" height="287.998" fill="white"/>
</clipPath>
</defs>
</svg>
